<?xml version="1.0" encoding="utf-8"?>
<!-- Generator: Adobe Illustrator 19.2.1, SVG Export Plug-In . SVG Version: 6.00 Build 0)  -->
<svg version="1.1" id="レイヤー_1" xmlns="http://www.w3.org/2000/svg" xmlns:xlink="http://www.w3.org/1999/xlink" x="0px"
	 y="0px" viewBox="0 0 80 80" style="enable-background:new 0 0 80 80;" xml:space="preserve">
<style type="text/css">
	.st0{fill:#FFFFFF;}
	.st1{clip-path:url(#SVGID_2_);}
	.st2{fill:#C1272D;}
</style>
<rect x="506.7" y="567.7" class="st0" width="25.4" height="49.2"/>
<g>
	<defs>
		<rect id="SVGID_1_" x="0" width="80" height="80"/>
	</defs>
	<clipPath id="SVGID_2_">
		<use xlink:href="#SVGID_1_"  style="overflow:visible;"/>
	</clipPath>
	<g class="st1">
		<g id="XMLID_1_">
			<g>
				<path class="st0" d="M46.1,56.7c0,1.1,0,1.2,1.1,1.2c5.1,0,10.1,0,15.2,0c1.1,0,1.1,0,1.1-1.2c0-5.3,0-10.6,0-15.9
					c0-5.2,0-10.5,0-15.7c0-1.1,0-1.2-1.1-1.2c-5.1,0-10.1,0-15.2,0c-1.1,0-1.1,0-1.1,1.2C46.1,35.7,46.1,46.2,46.1,56.7z
					 M45.7,21.5c0.4,0.2,0.9,0.4,1.3,0.4c5.1,0,10.2,0,15.2,0c0.4,0,0.9-0.3,1.3-0.6c0.8-0.6,1.4-1.4,2.1-2.1
					c0.4-0.4,0.8-0.5,1.2-0.1c1.2,1,2.5,2,3.7,3.1c0.8,0.7,0.7,1.3-0.1,2c-0.1,0.1-0.2,0.2-0.4,0.3C69,25,68.8,26,68.8,27.1
					c0.1,7.8,0,15.7,0.1,23.5c0,4.2,0.3,8.5,0.5,12.7c0.1,1.6-0.3,2.1-1.9,2.2c-0.8,0.1-1.7,0.1-2.5,0.1c-1,0-1.3-0.3-1.3-1.3
					c0-1.2,0-2.3,0-3.5c0-0.7-0.2-1-0.9-1c-5.2,0-10.4,0-15.5,0c-0.7,0-1,0.3-1,1c0,1.3,0,2.5,0,3.8c0,0.8-0.4,1.3-1.2,1.4
					c-1.1,0.1-2.1,0.2-3.2,0.1c-0.8,0-1-0.6-1-1.3c0-1.3,0.1-2.6,0.1-3.9c0.1-5.6,0.1-11.2,0.1-16.8c0-0.7,0-1.4,0-2.1
					c0,0,0.1,0,0.1,0c-0.1-7.5-0.3-14.9-0.4-22.4c0-0.3,0.1-0.7,0.2-1c0.4,0.1,0.8,0.1,1.1,0.3C43.2,19.8,44.5,20.7,45.7,21.5z"/>
				<path class="st2" d="M62.4,24c1.1,0,1.1,0,1.1,1.2c0,5.2,0,10.5,0,15.7c0,5.3,0,10.6,0,15.9c0,1.1,0,1.2-1.1,1.2
					c-5.1,0-10.1,0-15.2,0c-1.1,0-1.1,0-1.1-1.2c0-10.5,0-21,0-31.6c0-1.1,0-1.2,1.1-1.2C52.3,24,57.4,24,62.4,24z"/>
				<path class="st0" d="M7.7,30.6c0.6,0.1,1.2,0.3,1.9,0.3c3.4,0.1,6.8,0.1,10.3,0.2c0.9,0,1-0.1,1-1.1c0-2.9,0-5.8,0-8.7
					c0-1-0.1-1.1-1.2-0.9c-3.4,0.6-6.9,1.1-10.3,1.7c-0.5,0.1-1.1,0.1-1.2-0.6C8,20.8,8.6,20.8,9,20.7c3.1-1,6.3-1.8,9.3-2.9
					c5-1.8,9.9-3.6,14.4-6.6c0.5-0.3,0.9-0.3,1.4,0c0.5,0.4,1.1,0.8,1.6,1.1c1.1,0.8,2.2,1.6,3.3,2.4c0.3,0.2,0.6,0.8,0.5,1
					c-0.2,0.3-0.6,0.6-1,0.6c-0.5,0.1-1.1-0.1-1.6-0.1c-0.6,0-1.1-0.1-1.6,0.1c-2.8,0.8-5.5,1.6-8.3,2.4c-0.7,0.2-1,0.5-1,1.3
					c0,3,0,6,0,9c0,2.2-0.2,1.9,2,2c0.9,0,1.5-0.3,2-1c0.8-1,1.6-2,2.4-3c0.3-0.3,0.6-0.6,1-0.2c1.8,1.6,3.6,3.3,5.4,5
					c0.2,0.2,0.3,0.6,0.2,0.8c-0.1,0.2-0.5,0.3-0.7,0.3c-0.3,0.1-0.6,0-0.9,0c-3.4,0-6.9,0-10.3,0c-1,0-1.1,0.1-1.1,1.1
					c0,1.5,0,3,0,4.4c0,0.8,0.3,1.2,1,1.5c3.3,1.6,6.4,3.4,9.1,5.9c2.1,2,2.4,5.6,0.8,8c-0.6,0.9-1.4,0.9-2,0
					c-0.3-0.4-0.6-0.9-0.8-1.5c-1.8-3.6-3.9-6.9-6.9-9.6c-0.3-0.3-0.7-0.5-1.1-0.9c0,0.6-0.1,0.9-0.1,1.3c0,10.4,0,20.8,0,31.3
					c0,0.2,0,0.5,0,0.7c0,0.7-0.4,1.1-1.1,1.2c-0.5,0-0.9,0.1-1.4,0.1c16.6,7.8,39.1,3.2,50.5-15.6c11.2-18.4,5.9-42.2-12-54.1
					C44.4-5.1,20.4-0.9,7.7,16.4c-6.5,8.8-8.8,18.7-7.3,29.5C1.2,51.3,3,56.3,6,61c0.2-0.2,0.3-0.3,0.3-0.4
					c2.5-4.1,5.2-8.2,7.6-12.3c2.6-4.5,4.4-9.4,6.2-14.3c0.2-0.5,0.3-0.9-0.4-0.9c-3.6,0.1-7.1,0-10.6,0.2c-2,0.1-2,0.2-2.2-1.8
					C6.6,30.6,6.9,30.5,7.7,30.6z M129.1-41.7c0,53.9,0,107.9,0,161.8c-67.4,0-134.8,0-202.2,0c0-53.9,0-107.9,0-161.8
					C-5.7-41.7,61.7-41.7,129.1-41.7z M21.6,41.5c-0.1,0-0.2-0.1-0.3-0.1c-3.4,7.9-8.5,14.7-14.6,20.8c3.7,5.5,8.3,9.7,14.1,13
					C21.1,63.8,21.3,52.6,21.6,41.5z"/>
				<path class="st2" d="M6.7,62.2c6.1-6.1,11.2-12.9,14.6-20.8c0.1,0,0.2,0.1,0.3,0.1c-0.3,11.2-0.5,22.3-0.8,33.7
					C15,71.9,10.4,67.6,6.7,62.2z"/>
				<path class="st2" d="M41.7,66.1c1.1,0,2.2,0,3.2-0.1c0.8-0.1,1.2-0.6,1.2-1.4c0-1.3,0.1-2.5,0-3.8c0-0.7,0.2-1,1-1
					c5.2,0,10.4,0,15.5,0c0.7,0,1,0.3,0.9,1c0,1.2,0,2.3,0,3.5c0,1,0.4,1.3,1.3,1.3c0.8,0,1.7,0,2.5-0.1c1.6-0.1,2-0.6,1.9-2.2
					c-0.2-4.2-0.4-8.5-0.5-12.7c-0.1-7.8,0-15.7-0.1-23.5c0-1.2,0.2-2.1,1.3-2.6c0.1-0.1,0.3-0.2,0.4-0.3c0.8-0.7,0.9-1.3,0.1-2
					c-1.2-1.1-2.4-2.1-3.7-3.1c-0.4-0.4-0.9-0.3-1.2,0.1c-0.7,0.7-1.4,1.5-2.1,2.1c-0.3,0.3-0.9,0.6-1.3,0.6c-5.1,0-10.2,0-15.2,0
					c-0.4,0-0.9-0.2-1.3-0.4c-1.3-0.8-2.5-1.7-3.8-2.5c-0.3-0.2-0.7-0.2-1.1-0.3c-0.1,0.3-0.2,0.7-0.2,1c0.1,7.5,0.2,14.9,0.3,22.4
					c0,0,0,0,0,0c0,0.7,0,1.4,0,2.1c0,5.6-0.1,11.2-0.1,16.8c0,1.3-0.1,2.6-0.1,3.9C40.7,65.5,40.9,66.1,41.7,66.1z M6.3,59.9
					C6.3,60,6.2,60.1,6,60.3c-2.9-4.6-4.8-9.6-5.5-14.9C-1,34.7,1.3,24.9,7.8,16.2C20.5-0.9,44.4-5.1,62.1,6.6
					c17.9,11.8,23.3,35.2,12,53.4c-11.4,18.5-31.4,24.1-48,16.4l0,0c0,0,0-1.6,0-2.3c0-0.2,0-0.5,0-0.7c0-10.3,0-20.6,0-30.9
					c0-0.3,0-0.7,0.1-1.2c0.5,0.4,0.8,0.6,1.1,0.9c3,2.7,5.1,6,6.9,9.5c0.3,0.5,0.5,1,0.8,1.4c0.6,0.9,1.4,0.9,2,0
					c1.6-2.4,1.3-5.9-0.8-7.9c-2.7-2.5-5.8-4.2-9.1-5.8c-0.7-0.3-1-0.7-1-1.5c0-1.5,0-2.9,0-4.4c0-1,0.1-1.1,1.1-1.1
					c3.4,0,6.9,0,10.3,0c0.3,0,0.6,0,0.9,0c0.3-0.1,0.6-0.2,0.7-0.3c0.1-0.2,0-0.7-0.2-0.8c-1.8-1.7-3.6-3.3-5.4-4.9
					c-0.4-0.3-0.7-0.1-1,0.2c-0.8,1-1.7,2-2.4,3c-0.5,0.7-1.1,1-2,1c-2.2-0.1-2,0.2-2-2c0-3,0-5.9,0-8.9c0-0.7,0.3-1.1,1-1.2
					c2.8-0.8,5.5-1.6,8.3-2.4c0.5-0.1,1.1-0.1,1.6-0.1c0.6,0,1.1,0.2,1.6,0.1c0.4-0.1,0.9-0.3,1-0.6c0.1-0.2-0.2-0.8-0.5-1
					c-1.1-0.8-2.2-1.6-3.3-2.4c-0.5-0.4-1.1-0.7-1.6-1.1c-0.5-0.3-0.9-0.3-1.4,0c-4.4,2.9-9.4,4.7-14.4,6.5
					c-3.1,1.1-6.2,1.9-9.3,2.9c-0.4,0.1-1.1,0.1-0.9,0.8c0.1,0.6,0.7,0.6,1.2,0.5c3.4-0.6,6.9-1.1,10.3-1.7c1.1-0.2,1.2-0.1,1.2,0.9
					c0,2.9,0,5.7,0,8.6c0,1-0.1,1-1,1c-3.4,0-6.8-0.1-10.3-0.2c-0.6,0-1.2-0.2-1.9-0.3c-0.8-0.1-1,0-0.9,0.8C7.1,33,7,32.9,9,32.8
					c3.6-0.2,7.1-0.2,10.6-0.2c0.8,0,0.6,0.5,0.4,0.9c-1.8,4.8-3.6,9.7-6.2,14.2C11.5,51.8,8.9,55.8,6.3,59.9z"/>
			</g>
		</g>
	</g>
</g>
</svg>
